<svg width="26" height="26" viewBox="0 0 26 26" fill="none" xmlns="http://www.w3.org/2000/svg">
<path d="M4.8 0C3.52696 0 2.30606 0.505713 1.40589 1.40589C0.505713 2.30606 0 3.52696 0 4.8V17.6C0 18.873 0.505713 20.0939 1.40589 20.9941C2.30606 21.8943 3.52696 22.4 4.8 22.4H10.56C10.2984 21.8886 10.0877 21.3527 9.9312 20.8H4.8C3.95131 20.8 3.13737 20.4629 2.53726 19.8627C1.93714 19.2626 1.6 18.4487 1.6 17.6V4.8C1.6 3.95131 1.93714 3.13737 2.53726 2.53726C3.13737 1.93714 3.95131 1.6 4.8 1.6H17.6C18.4487 1.6 19.2626 1.93714 19.8627 2.53726C20.4629 3.13737 20.8 3.95131 20.8 4.8V9.9312C21.3584 10.0896 21.8928 10.2992 22.4 10.56V4.8C22.4 3.52696 21.8943 2.30606 20.9941 1.40589C20.0939 0.505713 18.873 0 17.6 0H4.8ZM10.4 11.2H13.3392C14.7712 10.192 16.5168 9.6 18.4 9.6H10.4C10.1878 9.6 9.98434 9.68429 9.83431 9.83431C9.68429 9.98434 9.6 10.1878 9.6 10.4C9.6 10.6122 9.68429 10.8157 9.83431 10.9657C9.98434 11.1157 10.1878 11.2 10.4 11.2ZM4 3.2C3.78783 3.2 3.58434 3.28429 3.43431 3.43431C3.28429 3.58434 3.2 3.78783 3.2 4C3.2 4.21217 3.28429 4.41566 3.43431 4.56569C3.58434 4.71571 3.78783 4.8 4 4.8H18.4C18.6122 4.8 18.8157 4.71571 18.9657 4.56569C19.1157 4.41566 19.2 4.21217 19.2 4C19.2 3.78783 19.1157 3.58434 18.9657 3.43431C18.8157 3.28429 18.6122 3.2 18.4 3.2H4ZM5.6 12.8C6.23652 12.8 6.84697 12.5471 7.29706 12.0971C7.74714 11.647 8 11.0365 8 10.4C8 9.76348 7.74714 9.15303 7.29706 8.70294C6.84697 8.25286 6.23652 8 5.6 8C4.96348 8 4.35303 8.25286 3.90294 8.70294C3.45286 9.15303 3.2 9.76348 3.2 10.4C3.2 11.0365 3.45286 11.647 3.90294 12.0971C4.35303 12.5471 4.96348 12.8 5.6 12.8ZM5.6 11.2C5.38783 11.2 5.18434 11.1157 5.03431 10.9657C4.88429 10.8157 4.8 10.6122 4.8 10.4C4.8 10.1878 4.88429 9.98434 5.03431 9.83431C5.18434 9.68429 5.38783 9.6 5.6 9.6C5.81217 9.6 6.01566 9.68429 6.16569 9.83431C6.31571 9.98434 6.4 10.1878 6.4 10.4C6.4 10.6122 6.31571 10.8157 6.16569 10.9657C6.01566 11.1157 5.81217 11.2 5.6 11.2ZM5.6 19.2C6.23652 19.2 6.84697 18.9471 7.29706 18.4971C7.74714 18.047 8 17.4365 8 16.8C8 16.1635 7.74714 15.553 7.29706 15.1029C6.84697 14.6529 6.23652 14.4 5.6 14.4C4.96348 14.4 4.35303 14.6529 3.90294 15.1029C3.45286 15.553 3.2 16.1635 3.2 16.8C3.2 17.4365 3.45286 18.047 3.90294 18.4971C4.35303 18.9471 4.96348 19.2 5.6 19.2ZM5.6 16C5.81217 16 6.01566 16.0843 6.16569 16.2343C6.31571 16.3843 6.4 16.5878 6.4 16.8C6.4 17.0122 6.31571 17.2157 6.16569 17.3657C6.01566 17.5157 5.81217 17.6 5.6 17.6C5.38783 17.6 5.18434 17.5157 5.03431 17.3657C4.88429 17.2157 4.8 17.0122 4.8 16.8C4.8 16.5878 4.88429 16.3843 5.03431 16.2343C5.18434 16.0843 5.38783 16 5.6 16ZM25.6 18.4C25.6 20.3096 24.8414 22.1409 23.4912 23.4912C22.1409 24.8414 20.3096 25.6 18.4 25.6C16.4904 25.6 14.6591 24.8414 13.3088 23.4912C11.9586 22.1409 11.2 20.3096 11.2 18.4C11.2 16.4904 11.9586 14.6591 13.3088 13.3088C14.6591 11.9586 16.4904 11.2 18.4 11.2C20.3096 11.2 22.1409 11.9586 23.4912 13.3088C24.8414 14.6591 25.6 16.4904 25.6 18.4ZM19.2 15.2C19.2 14.9878 19.1157 14.7843 18.9657 14.6343C18.8157 14.4843 18.6122 14.4 18.4 14.4C18.1878 14.4 17.9843 14.4843 17.8343 14.6343C17.6843 14.7843 17.6 14.9878 17.6 15.2V17.6H15.2C14.9878 17.6 14.7843 17.6843 14.6343 17.8343C14.4843 17.9843 14.4 18.1878 14.4 18.4C14.4 18.6122 14.4843 18.8157 14.6343 18.9657C14.7843 19.1157 14.9878 19.2 15.2 19.2H17.6V21.6C17.6 21.8122 17.6843 22.0157 17.8343 22.1657C17.9843 22.3157 18.1878 22.4 18.4 22.4C18.6122 22.4 18.8157 22.3157 18.9657 22.1657C19.1157 22.0157 19.2 21.8122 19.2 21.6V19.2H21.6C21.8122 19.2 22.0157 19.1157 22.1657 18.9657C22.3157 18.8157 22.4 18.6122 22.4 18.4C22.4 18.1878 22.3157 17.9843 22.1657 17.8343C22.0157 17.6843 21.8122 17.6 21.6 17.6H19.2V15.2Z" fill="white"/>
</svg>
