<svg width="23" height="25" viewBox="0 0 23 25" fill="none" xmlns="http://www.w3.org/2000/svg">
<path d="M5.7999 0V8M17.5332 0V8M5.06657 12H9.46657M18.2666 12H13.8666M5.06657 16.8H9.46657M13.8666 16.8H18.2666M2.86657 4H20.4666C20.8556 4 21.2286 4.16857 21.5037 4.46863C21.7787 4.76869 21.9332 5.17565 21.9332 5.6V21.6C21.9332 22.0243 21.7787 22.4313 21.5037 22.7314C21.2286 23.0314 20.8556 23.2 20.4666 23.2H2.86657C2.47758 23.2 2.10453 23.0314 1.82948 22.7314C1.55443 22.4313 1.3999 22.0243 1.3999 21.6V5.6C1.3999 5.17565 1.55443 4.76869 1.82948 4.46863C2.10453 4.16857 2.47758 4 2.86657 4V4Z" stroke="white" stroke-width="2.13333"/>
</svg>
