<svg width="14" height="14" viewBox="0 0 14 14" fill="none" xmlns="http://www.w3.org/2000/svg">
<path d="M3.57143 0V4.48276M10.4286 0V4.48276M3.14286 6.72414H5.71429M10.8571 6.72414H8.28571M3.14286 9.41379H5.71429M8.28571 9.41379H10.8571M1.85714 2.24138H12.1429C12.3702 2.24138 12.5882 2.33584 12.7489 2.50397C12.9097 2.67211 13 2.90015 13 3.13793V12.1034C13 12.3412 12.9097 12.5693 12.7489 12.7374C12.5882 12.9055 12.3702 13 12.1429 13H1.85714C1.62981 13 1.4118 12.9055 1.25105 12.7374C1.09031 12.5693 1 12.3412 1 12.1034V3.13793C1 2.90015 1.09031 2.67211 1.25105 2.50397C1.4118 2.33584 1.62981 2.24138 1.85714 2.24138V2.24138Z" stroke="#FEFFFF"/>
</svg>
