<svg width="12" height="12" viewBox="0 0 12 12" fill="none" xmlns="http://www.w3.org/2000/svg">
<path d="M5.3875 9.70416L3.31667 7.63333L4.1625 6.7875L5.3875 8.0125L7.8375 5.5625L8.68333 6.40833L5.3875 9.70416ZM1.91667 11.8333C1.59583 11.8333 1.32108 11.7192 1.09242 11.4909C0.864139 11.2622 0.75 10.9875 0.75 10.6667V2.5C0.75 2.17916 0.864139 1.90461 1.09242 1.67633C1.32108 1.44766 1.59583 1.33333 1.91667 1.33333H2.5V0.166664H3.66667V1.33333H8.33333V0.166664H9.5V1.33333H10.0833C10.4042 1.33333 10.6789 1.44766 10.9076 1.67633C11.1359 1.90461 11.25 2.17916 11.25 2.5V10.6667C11.25 10.9875 11.1359 11.2622 10.9076 11.4909C10.6789 11.7192 10.4042 11.8333 10.0833 11.8333H1.91667ZM1.91667 10.6667H10.0833V4.83333H1.91667V10.6667ZM1.91667 3.66666H10.0833V2.5H1.91667V3.66666ZM1.91667 3.66666V2.5V3.66666Z" fill="white"/>
</svg>
