<svg width="13" height="13" viewBox="0 0 13 13" fill="none" xmlns="http://www.w3.org/2000/svg">
<path d="M1.91667 11.8333C1.59583 11.8333 1.32108 11.7192 1.09242 11.4909C0.864139 11.2623 0.75 10.9875 0.75 10.6667V2.50001C0.75 2.17917 0.864139 1.90462 1.09242 1.67634C1.32108 1.44767 1.59583 1.33334 1.91667 1.33334H2.5V0.166672H3.66667V1.33334H8.33333V0.166672H9.5V1.33334H10.0833C10.4042 1.33334 10.6789 1.44767 10.9076 1.67634C11.1359 1.90462 11.25 2.17917 11.25 2.50001V6H10.0833V4.83334H1.91667V10.6667H6V11.8333H1.91667ZM11.9062 8.91667L10.6667 7.67709L11.0896 7.25417C11.1965 7.14723 11.3326 7.09375 11.4979 7.09375C11.6632 7.09375 11.7993 7.14723 11.9062 7.25417L12.3292 7.67709C12.4361 7.78403 12.4896 7.92014 12.4896 8.08542C12.4896 8.2507 12.4361 8.38681 12.3292 8.49375L11.9062 8.91667ZM7.16667 12.4167V11.1771L10.2583 8.08542L11.4979 9.32501L8.40625 12.4167H7.16667ZM1.91667 3.66667H10.0833V2.50001H1.91667V3.66667ZM1.91667 3.66667V2.50001V3.66667Z" fill="white"/>
</svg>
