<svg width="64" height="64" viewBox="0 0 64 64" fill="none" xmlns="http://www.w3.org/2000/svg">
<circle cx="32" cy="32" r="32" fill="#D9D9D9"/>
<path d="M15.2667 45.2667C17.5333 43.5333 20.0667 42.1662 22.8667 41.1653C25.6667 40.1662 28.6 39.6667 31.6667 39.6667C34.7333 39.6667 37.6667 40.1662 40.4667 41.1653C43.2667 42.1662 45.8 43.5333 48.0667 45.2667C49.6222 43.4444 50.8338 41.3778 51.7013 39.0667C52.5671 36.7556 53 34.2889 53 31.6667C53 25.7556 50.9227 20.7218 46.768 16.5653C42.6116 12.4107 37.5778 10.3333 31.6667 10.3333C25.7556 10.3333 20.7227 12.4107 16.568 16.5653C12.4116 20.7218 10.3333 25.7556 10.3333 31.6667C10.3333 34.2889 10.7671 36.7556 11.6347 39.0667C12.5004 41.3778 13.7111 43.4444 15.2667 45.2667ZM31.6667 34.3333C29.0444 34.3333 26.8329 33.4338 25.032 31.6347C23.2329 29.8338 22.3333 27.6222 22.3333 25C22.3333 22.3778 23.2329 20.1662 25.032 18.3653C26.8329 16.5662 29.0444 15.6667 31.6667 15.6667C34.2889 15.6667 36.5004 16.5662 38.3013 18.3653C40.1004 20.1662 41 22.3778 41 25C41 27.6222 40.1004 29.8338 38.3013 31.6347C36.5004 33.4338 34.2889 34.3333 31.6667 34.3333ZM31.6667 58.3333C27.9778 58.3333 24.5111 57.6329 21.2667 56.232C18.0222 54.8329 15.2 52.9333 12.8 50.5333C10.4 48.1333 8.50044 45.3111 7.10133 42.0667C5.70044 38.8222 5 35.3556 5 31.6667C5 27.9778 5.70044 24.5111 7.10133 21.2667C8.50044 18.0222 10.4 15.2 12.8 12.8C15.2 10.4 18.0222 8.49956 21.2667 7.09867C24.5111 5.69956 27.9778 5 31.6667 5C35.3556 5 38.8222 5.69956 42.0667 7.09867C45.3111 8.49956 48.1333 10.4 50.5333 12.8C52.9333 15.2 54.8329 18.0222 56.232 21.2667C57.6329 24.5111 58.3333 27.9778 58.3333 31.6667C58.3333 35.3556 57.6329 38.8222 56.232 42.0667C54.8329 45.3111 52.9333 48.1333 50.5333 50.5333C48.1333 52.9333 45.3111 54.8329 42.0667 56.232C38.8222 57.6329 35.3556 58.3333 31.6667 58.3333ZM31.6667 53C34.0222 53 36.2444 52.656 38.3333 51.968C40.4222 51.2782 42.3333 50.2889 44.0667 49C42.3333 47.7111 40.4222 46.7218 38.3333 46.032C36.2444 45.344 34.0222 45 31.6667 45C29.3111 45 27.0889 45.344 25 46.032C22.9111 46.7218 21 47.7111 19.2667 49C21 50.2889 22.9111 51.2782 25 51.968C27.0889 52.656 29.3111 53 31.6667 53ZM31.6667 29C32.8222 29 33.7778 28.6222 34.5333 27.8667C35.2889 27.1111 35.6667 26.1556 35.6667 25C35.6667 23.8444 35.2889 22.8889 34.5333 22.1333C33.7778 21.3778 32.8222 21 31.6667 21C30.5111 21 29.5556 21.3778 28.8 22.1333C28.0444 22.8889 27.6667 23.8444 27.6667 25C27.6667 26.1556 28.0444 27.1111 28.8 27.8667C29.5556 28.6222 30.5111 29 31.6667 29Z" fill="#2F2F2F"/>
</svg>
